<svg xmlns="http://www.w3.org/2000/svg" viewBox="0 0 662 488" font-family='system-ui,-apple-system,"Segoe UI",sans-serif'>
<defs>
<linearGradient id="ramp" x1="0" x2="1" y1="0" y2="0"><stop offset="0%" stop-color="#cde2fb"/><stop offset="100%" stop-color="#104281"/></linearGradient>
<pattern id="naHatch" patternUnits="userSpaceOnUse" width="6" height="6" patternTransform="rotate(45)"><rect width="6" height="6" fill="#eceae4"/><line x1="0" y1="0" x2="0" y2="6" stroke="#898781" stroke-width="1" stroke-opacity="0.5"/></pattern>
</defs>
<rect x="0" y="0" width="662" height="488" rx="10" fill="#fcfcfb" stroke="rgba(11,11,11,0.10)"/>
<text x="24" y="38" font-size="16" font-weight="700" fill="#0b0b0b">Weighted score: document × parser (0–5)</text>
<text x="24" y="60" font-size="11.5" fill="#52514e">Darker = better. AI-assisted preliminary scoring, pending human review — see results/caveats.md.</text>
<text x="264.0" y="74" font-size="12" font-weight="600" text-anchor="middle" fill="#0b0b0b">MarkItDown</text>
<text x="370.0" y="74" font-size="12" font-weight="600" text-anchor="middle" fill="#0b0b0b">Docling</text>
<text x="476.0" y="74" font-size="12" font-weight="600" text-anchor="middle" fill="#0b0b0b">Marker</text>
<text x="582.0" y="74" font-size="12" font-weight="600" text-anchor="middle" fill="#0b0b0b">MinerU</text>
<text x="200" y="119.0" font-size="11.5" text-anchor="end" fill="#52514e">NIPS — Attention Is All You Need</text>
<rect x="212.0" y="86.0" width="104" height="58" rx="3" fill="#6da7ec"/>
<text x="264.0" y="120.0" font-size="14" font-weight="600" text-anchor="middle" fill="#0b0b0b" font-variant-numeric="tabular-nums">1.70</text>
<rect x="318.0" y="86.0" width="104" height="58" rx="3" fill="#184f95"/>
<text x="370.0" y="120.0" font-size="14" font-weight="600" text-anchor="middle" fill="#ffffff" font-variant-numeric="tabular-nums">4.55</text>
<rect x="424.0" y="86.0" width="104" height="58" rx="3" fill="#256abf"/>
<text x="476.0" y="120.0" font-size="14" font-weight="600" text-anchor="middle" fill="#ffffff" font-variant-numeric="tabular-nums">3.60</text>
<rect x="530.0" y="86.0" width="104" height="58" rx="3" fill="#1c5cab"/>
<text x="582.0" y="120.0" font-size="14" font-weight="600" text-anchor="middle" fill="#ffffff" font-variant-numeric="tabular-nums">4.15</text>
<text x="200" y="179.0" font-size="11.5" text-anchor="end" fill="#52514e">NVIDIA technical report (17 MB)</text>
<rect x="212.0" y="146.0" width="104" height="58" rx="3" fill="#5598e7"/>
<text x="264.0" y="180.0" font-size="14" font-weight="600" text-anchor="middle" fill="#0b0b0b" font-variant-numeric="tabular-nums">2.40</text>
<rect x="318.0" y="146.0" width="104" height="58" rx="3" fill="#3987e5"/>
<text x="370.0" y="180.0" font-size="14" font-weight="600" text-anchor="middle" fill="#0b0b0b" font-variant-numeric="tabular-nums">2.95</text>
<rect x="424.0" y="146.0" width="104" height="58" rx="3" fill="url(#naHatch)"/>
<text x="476.0" y="180.0" font-size="14" font-weight="600" text-anchor="middle" fill="#52514e" font-variant-numeric="tabular-nums">N/A</text>
<rect x="530.0" y="146.0" width="104" height="58" rx="3" fill="#3987e5"/>
<text x="582.0" y="180.0" font-size="14" font-weight="600" text-anchor="middle" fill="#0b0b0b" font-variant-numeric="tabular-nums">2.90</text>
<text x="200" y="239.0" font-size="11.5" text-anchor="end" fill="#52514e">FY25 Q2 financial statements</text>
<rect x="212.0" y="206.0" width="104" height="58" rx="3" fill="#86b6ef"/>
<text x="264.0" y="240.0" font-size="14" font-weight="600" text-anchor="middle" fill="#0b0b0b" font-variant-numeric="tabular-nums">1.55</text>
<rect x="318.0" y="206.0" width="104" height="58" rx="3" fill="#184f95"/>
<text x="370.0" y="240.0" font-size="14" font-weight="600" text-anchor="middle" fill="#ffffff" font-variant-numeric="tabular-nums">4.75</text>
<rect x="424.0" y="206.0" width="104" height="58" rx="3" fill="#256abf"/>
<text x="476.0" y="240.0" font-size="14" font-weight="600" text-anchor="middle" fill="#ffffff" font-variant-numeric="tabular-nums">3.55</text>
<rect x="530.0" y="206.0" width="104" height="58" rx="3" fill="#5598e7"/>
<text x="582.0" y="240.0" font-size="14" font-weight="600" text-anchor="middle" fill="#0b0b0b" font-variant-numeric="tabular-nums">2.45</text>
<text x="200" y="299.0" font-size="11.5" text-anchor="end" fill="#52514e">State of Enterprise AI 2025</text>
<rect x="212.0" y="266.0" width="104" height="58" rx="3" fill="#5598e7"/>
<text x="264.0" y="300.0" font-size="14" font-weight="600" text-anchor="middle" fill="#0b0b0b" font-variant-numeric="tabular-nums">2.10</text>
<rect x="318.0" y="266.0" width="104" height="58" rx="3" fill="#cde2fb"/>
<text x="370.0" y="300.0" font-size="14" font-weight="600" text-anchor="middle" fill="#0b0b0b" font-variant-numeric="tabular-nums">0.00</text>
<rect x="424.0" y="266.0" width="104" height="58" rx="3" fill="#1c5cab"/>
<text x="476.0" y="300.0" font-size="14" font-weight="600" text-anchor="middle" fill="#ffffff" font-variant-numeric="tabular-nums">4.00</text>
<rect x="530.0" y="266.0" width="104" height="58" rx="3" fill="#2a78d6"/>
<text x="582.0" y="300.0" font-size="14" font-weight="600" text-anchor="middle" fill="#0b0b0b" font-variant-numeric="tabular-nums">3.15</text>
<text x="200" y="359.0" font-size="11.5" text-anchor="end" fill="#52514e">Congressional Record (CREC)</text>
<rect x="212.0" y="326.0" width="104" height="58" rx="3" fill="#86b6ef"/>
<text x="264.0" y="360.0" font-size="14" font-weight="600" text-anchor="middle" fill="#0b0b0b" font-variant-numeric="tabular-nums">1.15</text>
<rect x="318.0" y="326.0" width="104" height="58" rx="3" fill="#256abf"/>
<text x="370.0" y="360.0" font-size="14" font-weight="600" text-anchor="middle" fill="#ffffff" font-variant-numeric="tabular-nums">3.50</text>
<rect x="424.0" y="326.0" width="104" height="58" rx="3" fill="#184f95"/>
<text x="476.0" y="360.0" font-size="14" font-weight="600" text-anchor="middle" fill="#ffffff" font-variant-numeric="tabular-nums">4.50</text>
<rect x="530.0" y="326.0" width="104" height="58" rx="3" fill="#256abf"/>
<text x="582.0" y="360.0" font-size="14" font-weight="600" text-anchor="middle" fill="#ffffff" font-variant-numeric="tabular-nums">3.75</text>
<rect x="212" y="412" width="200" height="12" rx="3" fill="url(#ramp)"/>
<text x="212" y="438" font-size="10.5" fill="#898781">0 · worst</text>
<text x="412" y="438" font-size="10.5" text-anchor="end" fill="#898781">5 · best</text>
<text x="212" y="458" font-size="10.5" fill="#52514e">N/A = Marker timed out on the 17 MB NVIDIA report.</text>
<text x="212" y="474" font-size="10.5" fill="#52514e">Its average covers 4/5 docs — sample-biased, not directly comparable.</text>
</svg>